<svg id="iPhone_XR_Black" data-name="iPhone XR Black" xmlns="http://www.w3.org/2000/svg" xmlns:xlink="http://www.w3.org/1999/xlink" viewBox="0 0 1264 2134"><defs><style>.cls-1{isolation:isolate;}.cls-2,.cls-3{fill:#d0d0d0;}.cls-14,.cls-3,.cls-6{fill-opacity:0;}.cls-4{fill:#232227;}.cls-5,.cls-6{fill:#cdcdcd;}.cls-7{fill:#474747;}.cls-8{fill:#cfcfcf;}.cls-9{fill:#16151a;}.cls-10{fill:#48474c;}.cls-11{fill:#302e2c;}.cls-12{fill:#575757;}.cls-13,.cls-14{fill:#414141;}.cls-15{fill:#656567;}.cls-16{fill:#cac7f1;}.cls-17{fill:#747474;}.cls-18{fill:gray;}.cls-19{fill:red;}.cls-20{fill:#1000e2;}.cls-21,.cls-23{fill:none;stroke-linejoin:round;}.cls-21{stroke:url(#Unbenannter_Verlauf);}.cls-22{fill:#4f4f4f;}.cls-23{stroke:url(#Unbenannter_Verlauf_2);}.cls-24{fill:#3c7db5;fill-opacity:0.25;}.cls-25{fill:#dee4e2;}</style><linearGradient id="Unbenannter_Verlauf" x1="3911" y1="-993" x2="3911" y2="-975" gradientTransform="matrix(1, 0, 0, -1, -3159, -815)" gradientUnits="userSpaceOnUse"><stop offset="0" stop-color="#1e1e1e"/><stop offset="1" stop-color="#101010"/></linearGradient><linearGradient id="Unbenannter_Verlauf_2" x1="648" y1="1956" x2="648" y2="1974" gradientTransform="matrix(1, 0, 0, -1, 0, 2134)" xlink:href="#Unbenannter_Verlauf"/></defs><title>phone</title><g id="iPhone_X_elements" data-name="iPhone X elements"><g id="shadow"><image id="floor_shadow" data-name="floor shadow" class="cls-1" width="1264" height="355" transform="translate(0 1779)" xlink:href="phone1.png"/></g><g id="Buttons"><g id="on_off" data-name="on off"><path id="shape" class="cls-2" d="M1130.72,542.75l4.18,2a1.89,1.89,0,0,1,1.1,1.72v220a2.1,2.1,0,0,1-1.24,1.92L1129.1,771H1121V542h6.33A8,8,0,0,1,1130.72,542.75Z" transform="translate(-40 -92)"/><path id="shape-2" class="cls-3" d="M1130.72,542.75l4.18,2a1.89,1.89,0,0,1,1.1,1.72v220a2.1,2.1,0,0,1-1.24,1.92L1129.1,771H1121V542h6.33A8,8,0,0,1,1130.72,542.75Z" transform="translate(-40 -92)"/><path id="shape-3" class="cls-4" d="M1136,545.29a2.33,2.33,0,0,0-.07-.53c-.19-.76-2.09,3-2.09,10.79V756c0,1.31.81,12,2.08,9.76a2.1,2.1,0,0,0,.08-.56V545.29Z" transform="translate(-40 -92)"/></g><g id="volume"><g id="down"><path id="shape-4" class="cls-5" d="M163.58,674.75l-3.44,2a2.32,2.32,0,0,0-1.17,2V813.57a2,2,0,0,0,1.25,1.87l5.25,2.2a4.07,4.07,0,0,0,1.61.33H177V674h-10.4A6.12,6.12,0,0,0,163.58,674.75Z" transform="translate(-40 -92)"/><path id="shape-5" class="cls-6" d="M163.58,674.75l-3.44,2a2.32,2.32,0,0,0-1.17,2V813.57a2,2,0,0,0,1.25,1.87l5.25,2.2a4.07,4.07,0,0,0,1.61.33H177V674h-10.4A6.12,6.12,0,0,0,163.58,674.75Z" transform="translate(-40 -92)"/><path id="shape-6" class="cls-7" d="M162,801.56v-112c0-8.62-2.49-13-2.83-12.5a2.3,2.3,0,0,0-.15.78V813.59a2,2,0,0,0,.58,1.39C160.88,815.63,162,804.07,162,801.56Z" transform="translate(-40 -92)"/></g><g id="up"><path id="shape-7" class="cls-5" d="M165.13,494.52,160,497.33a1.9,1.9,0,0,0-1,1.67V635.27a1.77,1.77,0,0,0,1,1.56l5.49,2.85a2.94,2.94,0,0,0,1.36.33H172V494H167.2A4.28,4.28,0,0,0,165.13,494.52Z" transform="translate(-40 -92)"/><path id="shape-8" class="cls-6" d="M165.13,494.52,160,497.33a1.9,1.9,0,0,0-1,1.67V635.27a1.77,1.77,0,0,0,1,1.56l5.49,2.85a2.94,2.94,0,0,0,1.36.33H172V494H167.2A4.28,4.28,0,0,0,165.13,494.52Z" transform="translate(-40 -92)"/><path id="shape-9" class="cls-7" d="M162,621.14V511.55c0-10.14-2.11-14.56-2.61-14a1.81,1.81,0,0,0-.35,1.08V634.55a1.65,1.65,0,0,0,.24.87C160.5,637,162,625.55,162,621.14Z" transform="translate(-40 -92)"/></g></g><g id="block"><path id="shape-10" class="cls-8" d="M164.48,356h-2a2.68,2.68,0,0,0-1.86.74L159,358.26a2.47,2.47,0,0,0-.77,1.79v67.89a2.47,2.47,0,0,0,.77,1.79l.54.53a2.68,2.68,0,0,0,1.86.74h5.13a2.59,2.59,0,0,0,2.63-2.53V358.53a2.59,2.59,0,0,0-2.63-2.53Z" transform="translate(-40 -92)"/><path id="shape-11" class="cls-8" d="M162,426.54V361.35c0-5.32-1.26-5.66-1.73-5.2l-1.54,1.51a2.49,2.49,0,0,0-.75,1.78v67.65a2.49,2.49,0,0,0,.75,1.78l.54.52a2.56,2.56,0,0,0,.83.55h0C161.23,430.37,162,428.2,162,426.54Z" transform="translate(-40 -92)"/></g></g><g id="body"><path id="shape-12" class="cls-9" d="M964,2051c88.37,0,167-39.29,167-167V773.34a6.7,6.7,0,0,0-.79-3.16l-1.46-2.75a6.81,6.81,0,0,1-.78-3.16V549.21a6.7,6.7,0,0,1,.43-2.39l2.16-5.69a6.7,6.7,0,0,0,.44-2.39V259c0-127.71-78.63-167-167-167H331c-88.38,0-167,39.29-167,167v90.3a35.83,35.83,0,0,0,1.49,9.65,13.91,13.91,0,0,1,.5,3.69v58.85a35.74,35.74,0,0,1-1.2,8.79,26.17,26.17,0,0,0-.79,6.35v52.2a25.75,25.75,0,0,0,1.33,8.17l.34,1a25.48,25.48,0,0,1,1.34,8.17v121.7a25.68,25.68,0,0,1-1.33,8.15l-.35,1.07a25.68,25.68,0,0,0-1.33,8.15v23.31a18,18,0,0,0,1.52,7,18.72,18.72,0,0,1,1.5,7.35V808.61a18.77,18.77,0,0,1-1.24,6.71l-.55,1.46a18.93,18.93,0,0,0-1.23,6.7V1884c0,127.71,78.62,167,167,167Z" transform="translate(-40 -92)"/><path id="shape-13" class="cls-10" d="M1077.24,130.55C1049.94,107.62,1011.67,96,963.5,96h-633c-48.18,0-86.45,11.62-113.75,34.55C184.4,157.73,168,200.77,168,258.5v1625c0,57.72,16.4,100.77,48.75,127.94,27.3,22.93,65.57,34.56,113.75,34.56h633c48.17,0,86.44-11.63,113.74-34.56,32.36-27.17,48.76-70.22,48.76-127.94V258.5C1126,200.77,1109.6,157.73,1077.24,130.55Z" transform="translate(-40 -92)"/><path id="shape-14" class="cls-11" d="M1116,1883.5c0,54.63-15.2,95.1-45.19,120.28-25.45,21.38-61.55,32.22-107.31,32.22h-633c-45.76,0-81.86-10.84-107.31-32.22-30-25.18-45.19-65.65-45.19-120.28V258.5c0-54.63,15.2-95.11,45.19-120.29C248.68,116.84,284.78,106,330.54,106h633c45.76,0,81.86,10.84,107.31,32.21,30,25.18,45.19,65.66,45.19,120.29Z" transform="translate(-40 -92)"/><path id="shape-15" class="cls-12" d="M1069.71,139.63c-25-21-60.56-31.63-105.71-31.63H331c-45.16,0-80.72,10.64-105.71,31.63C195.9,164.31,181,204.14,181,258V1883c0,53.86,14.9,93.69,44.29,118.37,25,21,60.55,31.63,105.71,31.63H964c45.15,0,80.72-10.64,105.71-31.63,29.39-24.68,44.29-64.51,44.29-118.37V258C1114,204.14,1099.1,164.31,1069.71,139.63Z" transform="translate(-40 -92)"/><path id="shape-16" d="M1109,1883c0,52.31-14.3,90.85-42.51,114.54C1042.43,2017.75,1007.94,2028,964,2028H331c-43.95,0-78.43-10.25-102.49-30.46C200.3,1973.85,186,1935.31,186,1883V258c0-52.32,14.3-90.85,42.51-114.54C252.57,123.25,287.05,113,331,113H964c43.94,0,78.43,10.25,102.49,30.46C1094.7,167.15,1109,205.68,1109,258Z" transform="translate(-40 -92)"/><path id="shape-17" class="cls-13" d="M1065.2,145c-23.69-19.9-57.74-30-101.2-30H331c-43.46,0-77.51,10.09-101.21,30C202.06,168.28,188,206.3,188,258V1883c0,51.69,14.06,89.72,41.79,113,23.7,19.9,57.75,30,101.21,30H964c43.46,0,77.51-10.09,101.2-30,27.74-23.29,41.8-61.32,41.8-113V258C1107,206.3,1092.94,168.28,1065.2,145Z" transform="translate(-40 -92)"/><path id="shape-18" class="cls-14" d="M1065.2,145c-23.69-19.9-57.74-30-101.2-30H331c-43.46,0-77.51,10.09-101.21,30C202.06,168.28,188,206.3,188,258V1883c0,51.69,14.06,89.72,41.79,113,23.7,19.9,57.75,30,101.21,30H964c43.46,0,77.51-10.09,101.2-30,27.74-23.29,41.8-61.32,41.8-113V258C1107,206.3,1092.94,168.28,1065.2,145Z" transform="translate(-40 -92)"/><path id="shape-19" d="M1089.67,1890.07c0,66-27.07,119.59-115.59,119.59H320.87c-88.51,0-115.58-53.62-115.58-119.59V249.59c0-66,27.07-119.59,115.58-119.59H974.08c88.52,0,115.59,53.62,115.59,119.59Z" transform="translate(-40 -92)"/><path id="shape-20" class="cls-15" d="M181,293H164V280h17Z" transform="translate(-40 -92)"/><path id="shape-21" class="cls-16" d="M1131,293h-17V280h17Z" transform="translate(-40 -92)"/><path id="shape-22" class="cls-15" d="M181,1867H164v-13h17Z" transform="translate(-40 -92)"/><path id="shape-23" class="cls-16" d="M1131,1867h-17v-13h17Z" transform="translate(-40 -92)"/><path id="shape-24" class="cls-17" d="M215.1,1949.23h0c-6.94-17.44-9.81-37.62-9.81-59.11v-1640c0-25.92,4.18-49.93,14.63-69.53h0c12.61-24.35,35.51-45.83,36.73-51.53a110.83,110.83,0,0,0-26.86,16.49c-27.73,23.29-41.79,61.3-41.79,113V1883c0,51.68,14.06,89.69,41.79,113a109.94,109.94,0,0,0,24.91,15.62C255,2005.36,226.44,1981,215.1,1949.23Z" transform="translate(-40 -92)"/><path id="shape-25" class="cls-18" d="M1065.2,145.49a110.41,110.41,0,0,0-26.55-16.35c3.66,8.22,28,29.21,39.87,58.6v0c7.9,18.15,11.15,39.49,11.15,62.3V1890.11c0,23.43-3.42,45.3-11.8,63.76v0l-.13.27c-.23.51-.47,1-.71,1.51-15.3,32.39-37.4,46.88-37.52,56.33a110.26,110.26,0,0,0,25.69-16c27.74-23.29,41.8-61.3,41.8-113V258.48C1107,206.79,1092.94,168.78,1065.2,145.49Z" transform="translate(-40 -92)"/></g><g id="mic_cam" data-name="mic cam"><path id="shape-26" class="cls-19" d="M767,169a15,15,0,1,0-15,15,15,15,0,0,0,15-15Z" transform="translate(-40 -92)"/><path id="shape-27" class="cls-20" d="M761,169a9,9,0,1,0-9,9,9,9,0,0,0,9-9Z" transform="translate(-40 -92)"/><path id="shape-27-2" data-name="shape-27" class="cls-21" d="M761,169a9,9,0,1,0-9,9,9,9,0,0,0,9-9Z" transform="translate(-40 -92)"/><path id="shape-28" class="cls-22" d="M597,160H699a9,9,0,0,1,9,9h0a9,9,0,0,1-9,9H597a9,9,0,0,1-9-9h0A9,9,0,0,1,597,160Z" transform="translate(-40 -92)"/><path id="shape-28-2" data-name="shape-28" class="cls-23" d="M597,160H699a9,9,0,0,1,9,9h0a9,9,0,0,1-9,9H597a9,9,0,0,1-9-9h0A9,9,0,0,1,597,160Z" transform="translate(-40 -92)"/><path id="shape-29" class="cls-24" d="M752.78,163.74c-.67.64-.39,4.86-.32,6.54s1,1.72,1.49,1.72h3.13a1.68,1.68,0,0,0,1.62-1.21,7.16,7.16,0,0,0,.3-2,6.94,6.94,0,0,0-2-4.89C755.86,162.67,753.45,163.1,752.78,163.74Zm-5.39,8a1,1,0,0,0,.8-1.09,18.65,18.65,0,0,1,.94-5.88,1.32,1.32,0,0,0-.26-1.58,1,1,0,0,0-.92-.18,6.94,6.94,0,0,0-2.41,8.39c.22.55,1.29.5,1.85.34Z" transform="translate(-40 -92)"/></g></g><path id="mask_screen" data-name="mask screen" class="cls-25" d="M1073,1904.08A88.94,88.94,0,0,1,984.06,1993H311a88.92,88.92,0,0,1-89-88.85V237.92A88.92,88.92,0,0,1,310.92,149h87a12.12,12.12,0,0,1,12,12.13v4.45a51.49,51.49,0,0,0,51.47,51.5H833.58a51.49,51.49,0,0,0,51.49-51.49h0v-4.45a12.12,12.12,0,0,1,12-12.13H984a88.94,88.94,0,0,1,89,88.86V1904.08Z" transform="translate(-40 -92)"/><image id="PUT_YOUR_SCREEN_HERE_" data-name="PUT YOUR SCREEN HERE " class="cls-1" width="851" height="1844" transform="translate(182 57)" xlink:href="phone2.png"/></svg>