<?xml version="1.0" encoding="utf-8"?>
<!-- Generator: Adobe Illustrator 16.0.0, SVG Export Plug-In . SVG Version: 6.00 Build 0)  -->
<!DOCTYPE svg PUBLIC "-//W3C//DTD SVG 1.1//EN" "http://www.w3.org/Graphics/SVG/1.1/DTD/svg11.dtd">
<svg version="1.1" id="Ebene_1" xmlns="http://www.w3.org/2000/svg" xmlns:xlink="http://www.w3.org/1999/xlink" x="0px" y="0px"
	 width="876.068px" height="539.639px" viewBox="0 0 876.068 539.639" enable-background="new 0 0 876.068 539.639"
	 xml:space="preserve">
<g>
	<ellipse fill="#99CC33" cx="434.002" cy="191.321" rx="191.999" ry="191.666"/>
	<g>
		<path fill="#FFDE50" d="M573.225,229.649v-33.66c0-5.354-3.021-10.244-7.812-12.639l-20.449-10.226l-30.611-38.267
			c-4.471-5.586-11.235-8.839-18.393-8.839H318.864c-5.204,0-9.421,4.217-9.421,9.421v96.563L573.225,229.649L573.225,229.649z"/>
		<path fill="#FECA40" d="M309.443,220.228h263.781c2.604,0,4.711,2.109,4.711,4.71v9.421c0,2.604-2.107,4.71-4.711,4.71H309.443
			c-2.604,0-4.71-2.106-4.71-4.71v-9.421C304.732,222.337,306.842,220.228,309.443,220.228L309.443,220.228z"/>
		<path fill="#F3F3F4" d="M349.48,215.125c11.924,0,21.59,9.667,21.59,21.589c0,11.924-9.666,21.59-21.59,21.59
			s-21.59-9.666-21.59-21.59C327.892,224.791,337.558,215.125,349.48,215.125L349.48,215.125z"/>
		<path fill="#564C5B" d="M349.48,220.228c-9.092,0-16.486,7.396-16.486,16.486c0,9.093,7.396,16.487,16.486,16.487
			c9.093,0,16.484-7.396,16.484-16.487C365.968,227.622,358.574,220.228,349.48,220.228L349.48,220.228z M349.48,262.622
			c-14.286,0-25.907-11.621-25.907-25.908c0-14.286,11.621-25.906,25.907-25.906s25.907,11.621,25.907,25.906
			C375.389,251,363.767,262.622,349.48,262.622L349.48,262.622z"/>
		<path fill="#E4E2E6" d="M349.48,227.293c5.203,0,9.421,4.218,9.421,9.42c0,5.204-4.219,9.421-9.421,9.421
			s-9.421-4.217-9.421-9.421C340.061,231.512,344.278,227.293,349.48,227.293L349.48,227.293z"/>
		<path fill="#F3F3F4" d="M528.476,215.125c11.927,0,21.592,9.667,21.592,21.589c0,11.924-9.665,21.59-21.592,21.59
			c-11.923,0-21.589-9.666-21.589-21.59C506.887,224.791,516.553,215.125,528.476,215.125L528.476,215.125z"/>
		<path fill="#564C5B" d="M528.474,220.228c-9.093,0-16.484,7.396-16.484,16.486c0,9.093,7.396,16.487,16.484,16.487
			c9.094,0,16.486-7.396,16.486-16.487C544.962,227.622,537.565,220.228,528.474,220.228L528.474,220.228z M528.474,262.622
			c-14.286,0-25.905-11.621-25.905-25.908c0-14.286,11.619-25.906,25.905-25.906s25.907,11.621,25.907,25.906
			C554.383,251,542.76,262.622,528.474,262.622L528.474,262.622z"/>
		<path fill="#E4E2E6" d="M528.476,227.293c5.203,0,9.424,4.218,9.424,9.42c0,5.204-4.221,9.421-9.424,9.421
			c-5.2,0-9.42-4.217-9.42-9.421C519.056,231.512,523.273,227.293,528.476,227.293L528.476,227.293z"/>
		<path fill="#685E6C" d="M514.816,135.441h-6.597c-2.328,0-3.657,2.659-2.263,4.521l22.047,29.393
			c1.776,2.373,4.569,3.771,7.534,3.771h9.422L514.816,135.441L514.816,135.441z"/>
		<path fill="#685E6C" d="M495.975,139.209l22.609,30.146c1.163,1.555,0.057,3.771-1.886,3.771h-51.812
			c-2.603,0-4.71-2.109-4.71-4.71v-28.264c0-2.602,2.107-4.71,4.71-4.71h23.555C491.403,135.441,494.195,136.837,495.975,139.209
			L495.975,139.209z"/>
		<path fill="#685E6C" d="M328.284,173.124h117.763c2.602,0,4.71-2.109,4.71-4.71v-28.264c0-2.602-2.108-4.71-4.71-4.71H328.284
			c-2.602,0-4.71,2.109-4.71,4.71v28.264C323.574,171.015,325.683,173.124,328.284,173.124L328.284,173.124z"/>
		<polygon fill="#564C5B" points="380.099,135.441 389.52,135.441 389.52,173.124 380.099,173.124 		"/>
		<path fill="#FECA40" d="M544.965,196.676H318.864c-2.603,0-4.71-2.109-4.71-4.711l0,0c0-2.603,2.108-4.71,4.71-4.71h226.101
			c2.604,0,4.71,2.107,4.71,4.71l0,0C549.675,194.567,547.564,196.676,544.965,196.676L544.965,196.676z"/>
		<path fill="#EB5C60" d="M314.153,210.808h-4.71v-32.973h4.71c2.601,0,4.71,2.107,4.71,4.71v23.552
			C318.864,208.698,316.754,210.808,314.153,210.808L314.153,210.808z"/>
		<path fill="#F3F3F4" d="M559.095,191.965v4.711c0,2.601,2.106,4.71,4.709,4.71h9.421v-5.396c0-3.23-1.115-6.283-3.045-8.731
			h-6.376C561.203,187.255,559.095,189.364,559.095,191.965L559.095,191.965z"/>
	</g>
</g>
<g>
	<path fill="#99CC33" d="M68.543,452.849c-4.09,0-7.444,0.834-10.064,2.502c-2.621,1.667-3.931,4.188-3.931,7.562
		c0,3.375,1.31,5.955,3.931,7.741c2.62,1.786,8.197,3.713,16.733,5.776c8.534,2.066,14.966,4.963,19.294,8.694
		c4.327,3.733,6.491,9.23,6.491,16.495c0,7.266-2.74,13.162-8.218,17.688s-12.666,6.789-21.557,6.789
		c-13.023,0-24.576-4.486-34.658-13.459l8.813-10.6c8.415,7.305,17.15,10.957,26.202,10.957c4.526,0,8.117-0.973,10.778-2.918
		c2.66-1.945,3.99-4.526,3.99-7.742c0-3.215-1.251-5.717-3.752-7.503s-6.809-3.413-12.922-4.884
		c-6.115-1.468-10.76-2.816-13.935-4.049c-3.177-1.23-5.996-2.838-8.457-4.824c-4.924-3.73-7.384-9.447-7.384-17.15
		c0-7.7,2.799-13.637,8.397-17.805c5.598-4.169,12.524-6.253,20.783-6.253c5.319,0,10.6,0.874,15.841,2.62
		c5.24,1.747,9.766,4.209,13.577,7.385l-7.503,10.6c-2.462-2.223-5.797-4.05-10.004-5.479
		C76.78,453.564,72.632,452.849,68.543,452.849z"/>
	<path fill="#99CC33" d="M126.008,490.843v34.301h-13.339V436.89h13.339v36.445c1.906-3.891,4.783-6.947,8.635-9.172
		c3.851-2.222,7.999-3.334,12.446-3.334c7.146,0,12.922,2.185,17.329,6.551c4.407,4.367,6.61,10.68,6.61,18.937v38.827h-13.339
		v-34.777c0-11.672-4.844-17.508-14.53-17.508c-4.605,0-8.616,1.529-12.029,4.585C127.715,480.501,126.008,484.968,126.008,490.843z
		"/>
	<path fill="#99CC33" d="M230.101,496.083v-34.302h13.339v63.362h-13.339v-11.553c-2.144,3.891-5.103,6.949-8.873,9.17
		c-3.772,2.225-7.842,3.336-12.208,3.336c-7.146,0-12.922-2.184-17.329-6.551s-6.61-10.678-6.61-18.938v-38.827h13.339v34.778
		c0,11.672,4.842,17.508,14.53,17.508c4.604,0,8.614-1.529,12.029-4.586C228.393,506.427,230.101,501.96,230.101,496.083z"/>
	<path fill="#99CC33" d="M275.359,472.501v32.156c0,3.02,0.793,5.42,2.382,7.207c1.587,1.785,3.812,2.68,6.67,2.68
		s5.598-1.389,8.218-4.17l5.479,9.41c-4.686,4.209-9.867,6.312-15.542,6.312c-5.678,0-10.522-1.967-14.53-5.896
		c-4.01-3.93-6.015-9.23-6.015-15.9v-31.799h-7.979v-10.72h7.979v-19.89h13.339v19.89h16.674v10.72H275.359z"/>
	<path fill="#99CC33" d="M321.332,472.501v32.156c0,3.02,0.793,5.42,2.382,7.207c1.587,1.785,3.812,2.68,6.67,2.68
		s5.598-1.389,8.218-4.17l5.479,9.41c-4.686,4.209-9.867,6.312-15.542,6.312c-5.678,0-10.522-1.967-14.53-5.896
		c-4.01-3.93-6.015-9.23-6.015-15.9v-31.799h-7.979v-10.72h7.979v-19.89h13.339v19.89h16.674v10.72H321.332z"/>
	<path fill="#99CC33" d="M364.208,525.144h-13.339v-88.373h13.339V525.144z"/>
	<path fill="#99CC33" d="M438.644,499.298H388.98c0.316,4.606,2.421,8.318,6.312,11.137c3.889,2.818,8.337,4.229,13.339,4.229
		c7.938,0,13.974-2.502,18.104-7.504l7.622,8.336c-6.83,7.068-15.722,10.602-26.679,10.602c-8.894,0-16.456-2.957-22.688-8.873
		c-6.234-5.914-9.35-13.855-9.35-23.82s3.175-17.885,9.528-23.762c6.351-5.875,13.834-8.812,22.45-8.812
		c8.614,0,15.939,2.602,21.975,7.801c6.033,5.201,9.051,12.367,9.051,21.498V499.298z M388.98,488.818h36.326
		c0-5.318-1.667-9.409-5.002-12.268s-7.444-4.287-12.327-4.287c-4.883,0-9.271,1.488-13.161,4.466
		C390.925,479.706,388.98,483.738,388.98,488.818z"/>
	<path fill="#99CC33" d="M494.262,454.993v22.867h36.922v12.982h-36.922v34.301h-14.054v-83.252h55.501l-0.119,13.102H494.262z"/>
	<path fill="#99CC33" d="M547.26,449.157c-1.667-1.668-2.501-3.651-2.501-5.955c0-2.303,0.834-4.288,2.501-5.955
		c1.668-1.668,3.651-2.502,5.955-2.502c2.303,0,4.288,0.834,5.955,2.502c1.668,1.667,2.501,3.652,2.501,5.955
		c0,2.304-0.833,4.287-2.501,5.955c-1.667,1.667-3.652,2.5-5.955,2.5C550.912,451.657,548.928,450.824,547.26,449.157z
		 M559.766,525.144h-13.339v-63.362h13.339V525.144z"/>
	<path fill="#99CC33" d="M588.588,490.843v34.301h-13.339v-63.362h13.339v11.554c2.144-3.891,5.101-6.947,8.873-9.172
		c3.771-2.222,7.84-3.334,12.208-3.334c7.146,0,12.922,2.185,17.329,6.551c4.406,4.367,6.61,10.68,6.61,18.937v38.827h-13.34
		v-34.777c0-11.672-4.844-17.508-14.53-17.508c-4.605,0-8.616,1.529-12.029,4.585C590.295,480.501,588.588,484.968,588.588,490.843z
		"/>
	<path fill="#99CC33" d="M653.259,517.044c-5.955-6.033-8.933-13.974-8.933-23.82c0-9.844,3.056-17.705,9.171-23.582
		c6.113-5.875,13.398-8.812,21.854-8.812c8.457,0,15.264,3.572,20.426,10.719v-34.777h13.34v88.373h-13.34v-9.529
		c-4.924,6.988-12.108,10.482-21.557,10.482C666.2,526.097,659.214,523.079,653.259,517.044z M657.666,493.761
		c0,6.073,1.944,11.016,5.835,14.828c3.89,3.811,8.457,5.717,13.697,5.717s9.687-1.926,13.339-5.777
		c3.651-3.85,5.479-8.793,5.479-14.828c0-6.033-1.827-11.076-5.479-15.125c-3.652-4.05-8.14-6.074-13.458-6.074
		c-5.32,0-9.886,2.024-13.696,6.074C659.571,482.624,657.666,487.687,657.666,493.761z"/>
	<path fill="#99CC33" d="M783.554,499.298H733.89c0.315,4.606,2.421,8.318,6.312,11.137c3.89,2.818,8.337,4.229,13.34,4.229
		c7.938,0,13.974-2.502,18.104-7.504l7.622,8.336c-6.83,7.068-15.722,10.602-26.679,10.602c-8.894,0-16.456-2.957-22.688-8.873
		c-6.234-5.914-9.35-13.855-9.35-23.82s3.175-17.885,9.528-23.762c6.352-5.875,13.834-8.812,22.45-8.812
		c8.614,0,15.939,2.602,21.975,7.801c6.033,5.201,9.051,12.367,9.051,21.498V499.298z M733.89,488.818h36.325
		c0-5.318-1.667-9.409-5.002-12.268s-7.444-4.287-12.327-4.287s-9.271,1.488-13.161,4.466
		C735.835,479.706,733.89,483.738,733.89,488.818z"/>
	<path fill="#99CC33" d="M827.621,474.287c-6.591,0-11.553,2.144-14.888,6.431c-3.334,4.289-5.002,10.046-5.002,17.271v27.155
		h-13.339v-63.362h13.339v12.744c2.144-3.97,5.062-7.224,8.754-9.767c3.692-2.54,7.603-3.85,11.731-3.93l0.119,13.458
		C828.097,474.287,827.859,474.287,827.621,474.287z"/>
</g>
</svg>
