<?xml version="1.0" encoding="utf-8"?>
<!-- Generator: Adobe Illustrator 22.0.0, SVG Export Plug-In . SVG Version: 6.00 Build 0)  -->
<svg version="1.1" id="Ebene_1" xmlns="http://www.w3.org/2000/svg" xmlns:xlink="http://www.w3.org/1999/xlink" x="0px" y="0px"
	 viewBox="0 0 500 500" style="enable-background:new 0 0 500 500;" xml:space="preserve">
<style type="text/css">
	.st0{fill:#C02228;}
	.st1{fill:#FFFFFF;}
	.st2{font-family:'Roboto-Bold';}
	.st3{font-size:416.4649px;}
</style>
<g>
	<g>
		<path class="st0" d="M495.8,255c3.7-3.7,3.7-9.8,0-14l-11.2-11c-3.1-3.1-3.7-8.5-1.2-12.2l8.7-13.4c3.1-4.3,1.9-10.4-3.1-13.4
			l-13.7-8.5c-3.7-2.4-5.6-7.3-3.7-11.6l5.6-14.7c1.9-4.9-0.6-11-5.6-12.8l-14.9-4.9c-4.4-1.8-6.8-6.1-6.2-10.4l2.5-15.3
			c0.6-5.5-3.1-10.4-8.1-11l-16.2-2.4c-4.4-0.6-8.1-4.3-8.1-9.2l-0.6-15.9c0-5.5-5-9.8-10.6-9.2h-16.2c-5,0-8.7-3.1-10-7.3
			l-4.4-15.3c-1.2-5.5-6.8-8.5-12.4-6.7l-15.6,4.3c-4.4,1.2-9.3-0.6-11.2-4.9l-7.5-14c-2.5-4.9-8.7-6.7-13.7-4.3l-14.3,7.3
			c-4.4,1.8-9.3,1.2-12.4-2.4l-10-12.2c-3.7-4.3-10-4.9-13.7-1.2l-12.4,9.8c-3.7,3.1-8.7,3.1-12.4,0l-12.4-9.8
			c-4.4-3.7-10.6-3.1-13.7,1.2l-10,12.2c-3.1,3.7-8.1,4.9-12.4,2.4L180.3,17c-5-2.4-11.2-0.6-13.7,4.3l-7.5,14
			c-1.9,4.3-6.8,6.1-11.2,4.9l-15.6-4.3c-5.6-1.2-10.6,1.8-12.4,6.7l-4.4,15.3c-1.2,4.3-5.6,7.3-10,7.3l-16.2-0.6
			c-5.6-0.6-10,3.7-10.6,9.2l0.6,15.9c0,4.9-3.7,8.5-8.1,9.2l-16.2,2.4c-5.6,0.6-9.3,6.1-8.1,11l2.5,15.3c0.6,4.3-1.9,9.2-6.2,10.4
			l-14.9,5.5c-5,1.8-7.5,7.3-5.6,12.8l5.6,14.7c1.9,4.3,0,9.2-3.7,11.6L11,190.9c-4.4,3.1-6.2,9.2-3.1,13.4l8.7,13.4
			c2.5,3.7,1.9,9.2-1.2,12.2L4.2,241c-3.7,3.7-3.7,9.8,0,14l11.2,11c3.1,3.1,3.7,8.5,1.2,12.2l-8.7,13.4c-3.1,4.3-1.9,10.4,3.1,13.4
			l13.7,8.5c3.7,2.4,5.6,7.3,3.7,11.6l-6.2,14.7c-1.9,4.9,0.6,11,5.6,12.8l14.9,5.5c4.4,1.8,6.8,6.1,6.2,10.4l-2.5,15.3
			c-0.6,5.5,3.1,10.4,8.1,11l16.2,2.4c4.4,0.6,8.1,4.3,8.1,9.2l0.6,15.9c0,5.5,5,9.8,10.6,9.2h16.8c5,0,8.7,3.1,10,7.3l4.4,15.3
			c1.2,5.5,6.8,8.5,12.4,6.7l15.6-4.3c4.4-1.2,9.3,0.6,11.2,4.9l7.5,14c2.5,4.9,8.7,6.7,13.7,4.3l14.3-7.3c4.4-1.8,9.3-1.2,12.4,2.4
			l10,12.2c3.7,4.3,10,4.9,13.7,1.2l12.4-9.8c3.7-3.1,8.7-3.1,12.4,0l12.4,9.8c4.4,3.7,10.6,3.1,13.7-1.2l10-12.2
			c3.1-3.7,8.1-4.9,12.4-2.4l14.3,7.3c5,2.4,11.2,0.6,13.7-4.3l7.5-14c1.9-4.3,6.8-6.1,11.2-4.9l15.6,4.3c5.6,1.2,10.6-1.8,12.4-6.7
			l4.4-15.3c1.2-4.3,5.6-7.3,10-7.3l16.2,0.6c5.6,0.6,10-3.7,10.6-9.2l0.6-15.9c0-4.9,3.7-8.5,8.1-9.2l16.2-2.4
			c5.6-0.6,9.3-6.1,8.1-11l-2.5-15.3c-0.6-4.3,1.9-9.2,6.2-10.4l14.9-5.5c5-1.8,7.5-7.3,5.6-12.8l-5.6-14.7c-1.9-4.3,0-9.2,3.7-11.6
			l13.7-8.5c4.4-3.1,6.2-9.2,3.1-13.4l-10-13.4c-2.5-3.7-1.9-9.2,1.2-12.2L495.8,255z M200.1,53.5C158.3,66.3,106.5,96.9,75.3,152
			C42.3,205.8,41,265.8,51,307.4c9.4,42.2,29.3,66.7,26.8,67.9c0.6,0-21.8-23.3-32.4-66.7c-11.2-42.2-11.2-104,23.1-160.3
			c32.4-56.9,87.3-88.1,130.4-99.7c43-12.2,74.2-5.5,74.9-5.5l0,0l0,0C274.3,44.9,242.5,40,200.1,53.5z M293.2,442.6
			c41.8-12.9,93.6-43.4,124.8-98.5c33.1-53.8,34.3-113.8,24.3-155.4c-9.4-42.2-29.3-66.7-26.8-67.9c-0.6,0,21.8,23.3,32.4,66.7
			c11.2,42.2,11.2,104-23.1,160.3c-32.4,56.9-87.3,88.1-130.4,99.7c-43,12.2-74.2,5.5-74.9,5.5l0,0l0,0
			C219,451.2,250.8,456.1,293.2,442.6z"/>
	</g>
	<text transform="matrix(1.0194 0 0 1 192.4805 393.1387)" class="st1 st2 st3">!</text>
</g>
</svg>
